PathFileType	4	(X/Y/Z)	S1_nor_slow_right.trc
DataRate	CameraRate	NumFrames	NumMarkers	Units	OrigDataRate	OrigDataStartFrame	OrigNumFrames
250.00	250.00	17	18	mm	250.00	8655	9891
Frame#	Time	c7	r_should	l_should	clavicle	r_upa	r_elb_l	r_elb_m	r_low	r_wri_l	r_wri_m	r_met	l_upa	l_elb_l	l_elb_m	l_low	l_wri_l	l_wri_m	l_met
	X1	Y1	Z1	X2	Y2	Z2	X3	Y3	Z3	X4	Y4	Z4	X5	Y5	Z5	X6	Y6	Z6	X7	Y7	Z7	X8	Y8	Z8	X9	Y9	Z9	X10	Y10	Z10	X11	Y11	Z11	X12	Y12	Z12	X13	Y13	Z13	X14	Y14	Z14	X15	Y15	Z15	X16	Y16	Z16	X17	Y17	Z17	X18	Y18	Z18
8655	34.61600	906.95569	1420.04651	85.87251	980.97516	1357.16699	246.19783	931.73230	1368.18689	-116.50017	1041.88220	1299.44092	48.77163	958.74744	1163.66541	324.83786	979.17426	1078.22546	344.06586	921.42322	1034.97986	274.04953	1013.47253	949.76984	337.31186	1124.80725	930.38074	333.81958	1084.22278	887.67114	284.46542	1175.75818	865.55072	361.33743	915.38300	1146.30396	-158.68799	916.24457	1059.89148	-173.66069	862.66626	1037.95581	-84.70895	855.91864	922.93152	-178.85396	922.68658	824.48395	-169.58987	850.23145	823.05347	-180.42557	930.52979	749.62091	-194.83572
8656	34.62000	907.39502	1420.05688	86.02116	981.57800	1357.01794	246.27722	931.98480	1368.23657	-116.39250	1042.20557	1299.35474	48.79884	959.39276	1163.59595	324.94183	979.72607	1077.91150	344.24420	921.67847	1034.88220	274.33951	1013.14929	949.09467	337.75784	1124.32373	928.86212	334.14243	1083.28772	886.19629	285.07297	1175.01514	863.70630	361.70801	915.51959	1146.36633	-158.62556	916.31396	1059.95325	-173.61699	862.77197	1038.03918	-84.65450	855.93384	923.03363	-178.81009	922.67474	824.55023	-169.60980	850.19507	823.15228	-180.39885	930.47180	749.67676	-194.87970
8657	34.62400	907.82886	1420.06433	86.17748	982.19550	1356.86353	246.35188	932.23981	1368.28870	-116.28046	1042.54077	1299.27209	48.82540	960.02576	1163.57178	325.05771	980.26501	1077.58313	344.41592	921.93872	1034.75818	274.62900	1012.80603	948.43005	338.19766	1123.83105	927.33655	334.47406	1082.35962	884.75073	285.68393	1174.23901	861.86829	362.14151	915.65637	1146.42993	-158.56372	916.38959	1060.02185	-173.56750	862.88049	1038.12122	-84.59641	855.95404	923.13885	-178.76361	922.66632	824.62183	-169.63264	850.16760	823.25287	-180.37402	930.41949	749.73682	-194.92587
8658	34.62800	908.27368	1420.06763	86.35043	982.82910	1356.69543	246.41867	932.48877	1368.34473	-116.16653	1042.88733	1299.19141	48.84600	960.68213	1163.60925	325.19177	980.79523	1077.25952	344.59723	922.18365	1034.64502	274.90314	1012.44769	947.75464	338.61758	1123.32056	925.81305	334.80209	1081.39355	883.29431	286.33057	1173.45728	860.06677	362.58524	915.79169	1146.49854	-158.50114	916.47229	1060.09473	-173.51520	862.99396	1038.19336	-84.53131	855.97601	923.24542	-178.71420	922.66254	824.69073	-169.65337	850.14233	823.35785	-180.34160	930.36621	749.79749	-194.96864
8659	34.63200	908.72980	1420.07178	86.53344	983.46375	1356.52612	246.48448	932.73975	1368.40295	-116.04492	1043.22009	1299.10107	48.85809	961.43878	1163.43213	325.39673	981.31049	1076.93127	344.77734	922.41699	1034.53186	275.14532	1012.10712	947.07971	338.99347	1122.81177	924.29498	335.12640	1080.45203	881.87445	286.96762	1172.65393	858.29285	363.02768	915.93347	1146.57397	-158.43993	916.56073	1060.17358	-173.45438	863.11810	1038.27148	-84.46239	856.00189	923.35266	-178.66399	922.66467	824.75909	-169.66978	850.12280	823.46283	-180.30614	930.31244	749.85632	-195.00978
8660	34.63600	909.17822	1420.07678	86.72233	984.10168	1356.35974	246.55458	932.99207	1368.45801	-115.91602	1043.54065	1299.02832	48.86267	962.36896	1163.04858	325.69424	981.82782	1076.58899	344.95361	922.66418	1034.40320	275.37250	1011.74829	946.42456	339.36301	1122.28467	922.81323	335.44693	1079.54395	880.46838	287.54962	1171.82874	856.56342	363.46234	916.07739	1146.65308	-158.37041	916.65192	1060.25684	-173.39607	863.24463	1038.34729	-84.39968	856.03461	923.45868	-178.60783	922.66772	824.83191	-169.68814	850.11389	823.56952	-180.27405	930.26385	749.93811	-195.05281
8661	34.64000	909.61707	1420.08069	86.89835	984.75006	1356.20081	246.64735	933.24097	1368.51685	-115.78080	1043.87256	1298.95471	48.88095	963.09058	1162.84106	325.82538	982.35620	1076.25024	345.10223	922.91882	1034.28271	275.57492	1011.36182	945.78241	339.75793	1121.77478	921.33929	335.75681	1078.63806	879.07855	288.13754	1170.98218	854.88098	363.91763	916.22144	1146.73499	-158.29329	916.73981	1060.33582	-173.34001	863.38556	1038.41724	-84.32546	856.06964	923.56763	-178.55197	922.67834	824.91174	-169.70938	850.10571	823.67969	-180.23848	930.22095	750.00952	-195.09610
8662	34.64400	910.06342	1420.08508	87.06426	985.38782	1356.05408	246.74272	933.49072	1368.57910	-115.63390	1044.21143	1298.88550	48.89838	963.75232	1162.68408	325.92209	982.86182	1075.91345	345.21359	923.19202	1034.14978	275.76001	1011.00397	945.15631	340.13611	1121.25061	919.89233	336.08435	1077.69324	877.71271	288.79272	1170.15552	853.18231	364.35980	916.36359	1146.82007	-158.21806	916.81921	1060.42310	-173.28989	863.52679	1038.49133	-84.24043	856.10651	923.67426	-178.49478	922.68732	824.99591	-169.72809	850.11078	823.78400	-180.20070	930.17609	750.07959	-195.13924
8663	34.64800	910.50848	1420.09827	87.22746	986.00012	1355.91321	246.82831	933.74268	1368.64270	-115.49352	1044.53870	1298.82434	48.91873	964.26294	1162.65369	325.91669	983.35980	1075.57703	345.30188	923.45148	1034.02124	275.93918	1010.66254	944.51746	340.50732	1120.73047	918.46857	336.40457	1076.74304	876.36163	289.45651	1169.32898	851.53320	364.83618	916.50421	1146.90149	-158.13818	916.90375	1060.50989	-173.21992	863.67084	1038.56494	-84.16395	856.14697	923.77148	-178.43410	922.69659	825.07935	-169.74675	850.11249	823.88806	-180.16411	930.13702	750.14868	-195.18286
8664	34.65200	910.94336	1420.10474	87.38399	986.60638	1355.76807	246.90407	934.00421	1368.70251	-115.34910	1044.85938	1298.76135	48.94662	964.57770	1162.71716	325.81610	983.86591	1075.24207	345.39139	923.69879	1033.88904	276.09189	1010.27905	943.89117	340.89487	1120.20056	917.05872	336.71262	1075.80591	875.00903	290.07703	1168.50964	849.92102	365.31268	916.64502	1146.98230	-158.05391	916.98956	1060.59424	-173.15742	863.81421	1038.62671	-84.08463	856.19080	923.86786	-178.37286	922.71234	825.15790	-169.76103	850.11682	823.99506	-180.11844	930.09662	750.21741	-195.22025
8665	34.65600	911.38367	1420.10938	87.53069	987.21063	1355.61279	246.99054	934.25928	1368.75513	-115.20867	1045.18262	1298.68823	48.98115	965.09204	1162.51514	325.91217	984.34760	1074.89807	345.49246	923.92828	1033.75220	276.22052	1009.88593	943.28979	341.28165	1119.68042	915.68658	337.00928	1074.85242	873.69397	290.68857	1167.67944	848.31799	365.79028	916.78705	1147.05664	-157.96384	917.07593	1060.67505	-173.09383	863.95453	1038.69409	-83.98724	856.23572	923.96497	-178.30951	922.73547	825.23083	-169.77330	850.13312	824.09216	-180.07622	930.05963	750.29523	-195.27022
8666	34.66000	911.83337	1420.11182	87.69582	987.79510	1355.45215	247.09276	934.50830	1368.80920	-115.07265	1045.50500	1298.60742	49.00140	965.75842	1162.26294	326.00827	984.81116	1074.53491	345.58423	924.14008	1033.62720	276.34854	1009.50110	942.68280	341.62866	1119.17236	914.32544	337.28796	1073.91528	872.39001	291.29855	1166.84534	846.75751	366.26633	916.93188	1147.13184	-157.88051	917.16516	1060.75391	-173.02960	864.08789	1038.76208	-83.87878	856.28021	924.06525	-178.24106	922.76373	825.31055	-169.78751	850.15149	824.18976	-180.04343	930.02893	750.37549	-195.30440
8667	34.66400	912.27533	1420.12097	87.86821	988.36548	1355.29224	247.19066	934.76569	1368.86951	-114.93604	1045.83337	1298.53076	49.03033	966.47009	1161.99304	326.09607	985.25623	1074.15906	345.66354	924.33203	1033.51025	276.44897	1009.11652	942.07074	341.94269	1118.66211	912.99225	337.55536	1072.96851	871.11047	291.92761	1166.01404	845.20483	366.69864	917.07300	1147.21106	-157.79642	917.25647	1060.83081	-172.96997	864.22028	1038.82288	-83.78162	856.32800	924.16547	-178.16914	922.79547	825.39520	-169.80081	850.17175	824.29327	-180.01013	930.00092	750.46246	-195.34677
8668	34.66800	912.71619	1420.12964	88.04357	988.94312	1355.12988	247.28905	935.02069	1368.92822	-114.80338	1046.15466	1298.45764	49.07030	966.95581	1161.92163	326.06345	985.69049	1073.78772	345.73959	924.52625	1033.37708	276.54959	1008.72968	941.47168	342.25250	1118.14111	911.67395	337.82434	1072.01782	869.85388	292.57977	1165.17566	843.69458	367.15161	917.21252	1147.29480	-157.70250	917.34515	1060.91113	-172.91545	864.35522	1038.89417	-83.67931	856.37494	924.26227	-178.09621	922.83044	825.47516	-169.81276	850.20752	824.39111	-179.96069	929.99316	750.55243	-195.38657
8669	34.67200	913.17737	1420.13367	88.24075	989.50275	1354.96655	247.39865	935.27594	1368.98413	-114.66480	1046.48132	1298.38733	49.11336	967.64136	1161.75696	326.16043	986.11133	1073.42944	345.80011	924.72241	1033.23291	276.62140	1008.35107	940.88831	342.56015	1117.62183	910.37433	338.07993	1071.06970	868.60791	293.23221	1164.35718	842.20697	367.61490	917.35284	1147.37842	-157.61566	917.43323	1060.98889	-172.84871	864.49213	1038.97986	-83.56775	856.42719	924.36768	-178.02084	922.87109	825.55554	-169.82162	850.24109	824.49658	-179.91579	929.98273	750.64972	-195.42953
8670	34.67600	913.63623	1420.14417	88.42592	990.06433	1354.80518	247.50719	935.53815	1369.04028	-114.52797	1046.80469	1298.32068	49.13140	967.99341	1161.76453	326.03418	986.51135	1073.08582	345.84332	924.91992	1033.09375	276.66574	1007.99036	940.32782	342.85730	1117.09729	909.08966	338.32220	1070.13684	867.39252	293.83420	1163.53882	840.73151	368.10211	917.49023	1147.46326	-157.53242	917.53326	1061.07239	-172.78104	864.62921	1039.06360	-83.46175	856.48273	924.47437	-177.94838	922.91388	825.64099	-169.83183	850.27484	824.60260	-179.87506	929.98218	750.74811	-195.46864
8671	34.68000	914.07184	1420.16077	88.59570	990.63147	1354.64221	247.62241	935.79608	1369.09851	-114.38732	1047.12878	1298.26123	49.14587	968.47302	1161.62048	326.01758	986.90686	1072.73547	345.87799	925.11346	1032.95447	276.69949	1007.61273	939.77405	343.15317	1116.56714	907.83221	338.55801	1069.19934	866.18658	294.43079	1162.74072	839.30457	368.55109	917.62683	1147.54883	-157.44490	917.63574	1061.16052	-172.71413	864.77509	1039.13733	-83.36091	856.53979	924.58020	-177.88014	922.95905	825.73065	-169.83667	850.31879	824.71045	-179.82059	929.99066	750.85138	-195.50009
